<svg width="49" height="49" viewBox="0 0 49 49" fill="none" xmlns="http://www.w3.org/2000/svg">
<rect x="1.17648" y="0.5" width="47.3235" height="47.3235" rx="23.6618" stroke="black" stroke-opacity="0.25"/>
<path d="M21.0424 31.0531C21.2389 31.4846 21.8586 31.6932 22.3724 31.4846C22.5689 31.4127 23.4002 30.5497 25.5765 28.162C27.2013 26.3928 28.569 24.861 28.6295 24.7603C28.6899 24.6524 28.7353 24.3863 28.7353 24.1706C28.7353 23.9548 28.6899 23.6887 28.6295 23.5809C28.569 23.4802 27.1861 21.9339 25.5539 20.1504C22.3498 16.648 22.38 16.6768 21.7377 16.7918C21.1633 16.8925 20.8082 17.4319 21.0198 17.8922C21.0727 18.0216 22.3422 19.46 23.8385 21.0853C25.3272 22.7179 26.5514 24.1059 26.5514 24.1706C26.5514 24.2281 25.3272 25.6161 23.8385 27.2487C22.3422 28.8812 21.0802 30.3052 21.0273 30.413C20.9064 30.6648 20.914 30.7726 21.0424 31.0531Z" fill="#151515"/>
</svg>
