<svg width="18" height="19" viewBox="0 0 18 19" fill="none" xmlns="http://www.w3.org/2000/svg">
<path d="M12.75 2.24756H5.25C3.17893 2.24756 1.5 3.92649 1.5 5.99756V13.4976C1.5 15.5686 3.17893 17.2476 5.25 17.2476H12.75C14.8211 17.2476 16.5 15.5686 16.5 13.4976V5.99756C16.5 3.92649 14.8211 2.24756 12.75 2.24756Z" stroke="white" stroke-width="1.5" stroke-linecap="round" stroke-linejoin="round"/>
<path d="M12 9.27504C12.0926 9.89923 11.986 10.5367 11.6953 11.0968C11.4047 11.6569 10.9449 12.1111 10.3812 12.3948C9.8176 12.6785 9.17886 12.7772 8.55586 12.677C7.93287 12.5767 7.35734 12.2826 6.91115 11.8364C6.46496 11.3902 6.17082 10.8147 6.07058 10.1917C5.97033 9.5687 6.06907 8.92996 6.35277 8.36632C6.63647 7.80268 7.09066 7.34285 7.65076 7.05222C8.21086 6.7616 8.84834 6.65498 9.47252 6.74754C10.1092 6.84195 10.6987 7.13864 11.1538 7.59377C11.6089 8.0489 11.9056 8.63835 12 9.27504Z" stroke="white" stroke-width="1.5" stroke-linecap="round" stroke-linejoin="round"/>
<path d="M13.125 5.62256H13.1325" stroke="white" stroke-width="1.5" stroke-linecap="round" stroke-linejoin="round"/>
</svg>
