<svg width="18" height="19" viewBox="0 0 18 19" fill="none" xmlns="http://www.w3.org/2000/svg">
<path d="M12 6.74756C13.1935 6.74756 14.3381 7.22166 15.182 8.06558C16.0259 8.90949 16.5 10.0541 16.5 11.2476V16.4976H13.5V11.2476C13.5 10.8497 13.342 10.4682 13.0607 10.1869C12.7794 9.90559 12.3978 9.74756 12 9.74756C11.6022 9.74756 11.2206 9.90559 10.9393 10.1869C10.658 10.4682 10.5 10.8497 10.5 11.2476V16.4976H7.5V11.2476C7.5 10.0541 7.97411 8.90949 8.81802 8.06558C9.66193 7.22166 10.8065 6.74756 12 6.74756Z" fill="white"/>
<path d="M4.5 7.49756H1.5V16.4976H4.5V7.49756Z" fill="white"/>
<path d="M3 5.24756C3.82843 5.24756 4.5 4.57599 4.5 3.74756C4.5 2.91913 3.82843 2.24756 3 2.24756C2.17157 2.24756 1.5 2.91913 1.5 3.74756C1.5 4.57599 2.17157 5.24756 3 5.24756Z" fill="white"/>
</svg>
