<svg width="18" height="19" viewBox="0 0 18 19" fill="none" xmlns="http://www.w3.org/2000/svg">
<path d="M17.25 2.99753C16.5318 3.50414 15.7366 3.89161 14.895 4.14503C14.4433 3.62567 13.843 3.25755 13.1753 3.09048C12.5076 2.9234 11.8046 2.96543 11.1616 3.21087C10.5185 3.45632 9.96633 3.89333 9.57974 4.46282C9.19314 5.03231 8.99077 5.70678 9 6.39503V7.14503C7.68198 7.17921 6.37596 6.88689 5.19826 6.29412C4.02056 5.70134 3.00774 4.82651 2.25 3.74753C2.25 3.74753 -0.75 10.4975 6 13.4975C4.4554 14.546 2.61537 15.0717 0.75 14.9975C7.5 18.7475 15.75 14.9975 15.75 6.37253C15.7493 6.16362 15.7292 5.95523 15.69 5.75003C16.4555 4.99515 16.9956 4.04207 17.25 2.99753Z" fill="white"/>
</svg>
